<?xml version="1.0" standalone="no"?>
<!DOCTYPE svg PUBLIC "-//W3C//DTD SVG 20010904//EN"
 "http://www.w3.org/TR/2001/REC-SVG-20010904/DTD/svg10.dtd">
<svg version="1.0" xmlns="http://www.w3.org/2000/svg"
 width="500.000000pt" height="300.000000pt" viewBox="0 0 500.000000 300.000000"
 preserveAspectRatio="xMidYMid meet">

<g transform="translate(0.000000,300.000000) scale(0.100000,-0.100000)"
fill="#000000" stroke="none">
<path d="M0 1500 l0 -1500 2500 0 2500 0 0 1500 0 1500 -2500 0 -2500 0 0
-1500z m3118 1327 c35 -8 65 -16 67 -18 2 -2 -130 -5 -293 -6 -256 -3 -321 -6
-472 -28 -96 -14 -197 -32 -225 -39 -27 -8 -79 -20 -115 -26 -36 -6 -92 -20
-125 -30 -33 -11 -109 -34 -170 -51 -120 -34 -274 -87 -290 -101 -5 -4 -16 -8
-24 -8 -8 0 -43 -13 -78 -30 -34 -16 -65 -30 -68 -30 -12 0 -289 -142 -361
-185 -208 -124 -361 -242 -509 -390 -172 -171 -250 -306 -286 -488 -68 -349
46 -606 352 -788 289 -172 670 -276 1144 -310 203 -15 825 -5 1020 15 621 66
1027 172 1430 373 301 151 556 368 644 548 51 105 73 191 73 293 0 266 -143
487 -422 653 -177 105 -594 254 -875 313 -70 15 -339 59 -430 71 -90 11 -128
20 -138 29 -7 7 -32 17 -57 23 l-45 11 55 1 c61 1 340 -23 465 -40 125 -17
383 -76 526 -120 575 -177 864 -396 968 -733 25 -82 28 -226 6 -331 -48 -230
-296 -507 -635 -709 -92 -54 -335 -176 -352 -176 -7 0 -26 -7 -43 -16 -81 -43
-391 -131 -625 -178 -289 -57 -563 -86 -998 -106 -776 -34 -1442 101 -1813
370 -127 91 -200 177 -263 310 -46 95 -60 186 -53 340 14 305 137 529 437 791
227 199 532 382 865 519 55 23 109 45 120 50 125 57 486 157 725 201 124 23
130 24 240 34 47 4 87 10 90 12 12 12 478 -6 538 -20z m-928 -647 c0 -67 -4
-110 -10 -110 -5 0 -10 16 -10 35 0 24 -9 45 -29 67 l-29 33 -191 3 -191 3 0
-190 0 -191 28 -6 c28 -7 137 -56 160 -72 12 -8 42 -167 41 -217 0 -11 -15 12
-33 51 -18 38 -50 87 -72 108 -35 35 -101 76 -121 76 -4 0 -6 -154 -3 -342 5
-367 6 -374 57 -397 13 -6 35 -11 48 -11 14 0 25 -4 25 -10 0 -6 -72 -10 -195
-10 -123 0 -195 4 -195 10 0 6 16 10 36 10 28 0 44 8 70 34 l34 34 0 356 c0
325 -1 357 -17 363 -9 4 -57 1 -107 -5 -201 -25 -359 -156 -419 -347 -27 -84
-31 -259 -8 -340 45 -160 170 -300 311 -350 162 -57 350 -28 496 77 l45 32 -3
159 c-3 153 -4 160 -27 178 -13 10 -36 19 -52 19 -16 0 -29 3 -29 8 0 4 70 8
155 8 85 1 155 -2 155 -7 0 -5 -12 -9 -28 -9 -15 0 -38 -7 -50 -16 -21 -15
-22 -20 -22 -192 0 -123 5 -197 15 -241 52 -218 226 -325 500 -307 86 5 88 5
52 -9 -124 -47 -299 -40 -412 15 -111 54 -185 137 -226 255 -11 33 -22 61 -24
63 -1 2 -25 -11 -51 -28 -74 -47 -164 -71 -284 -77 -133 -6 -226 12 -337 67
-204 100 -318 285 -317 515 0 126 28 219 96 321 107 160 295 253 511 254 l77
0 0 181 0 181 -232 -4 c-227 -3 -234 -4 -277 -28 -94 -53 -133 -147 -97 -234
22 -54 -2 -43 -32 14 -41 79 -12 187 64 239 85 59 101 60 569 61 317 1 447 4
495 14 36 8 71 14 78 15 9 1 12 -27 12 -109z m-1630 -745 c0 -8 -9 -15 -20
-15 -16 0 -19 -8 -22 -62 -2 -50 -6 -63 -20 -66 -16 -3 -18 5 -18 62 0 59 -2
66 -20 66 -20 0 -26 11 -13 23 3 4 30 7 60 7 40 0 53 -4 53 -15z m325 0 c0 -5
-17 -11 -37 -13 -25 -2 -38 -8 -38 -18 0 -8 6 -14 13 -15 6 -1 21 -2 31 -3 37
-2 30 -26 -8 -26 -29 0 -36 -4 -36 -20 0 -17 7 -20 40 -20 29 0 40 -4 40 -15
0 -13 -11 -15 -57 -13 l-58 3 -3 64 c-4 89 -2 93 60 89 29 -2 53 -7 53 -13z
m316 5 c23 -13 26 -40 4 -40 -8 0 -15 5 -15 11 0 6 -10 9 -22 7 -20 -3 -23
-10 -26 -50 -3 -46 -2 -48 22 -48 15 0 26 5 26 10 0 6 7 10 15 10 19 0 19 -14
-1 -34 -41 -41 -104 -2 -104 64 0 64 48 98 101 70z m274 -25 c1 -25 5 -30 27
-32 23 -1 27 2 30 30 2 20 8 32 18 32 12 0 16 -17 18 -78 3 -71 1 -78 -15 -75
-12 2 -19 14 -21 34 -3 27 -6 30 -27 26 -17 -3 -25 -12 -27 -30 -2 -16 -10
-28 -20 -30 -16 -3 -18 6 -18 78 0 72 2 81 18 78 11 -2 17 -13 17 -33z m375
-12 l30 -48 0 48 c0 35 4 47 15 47 12 0 15 -16 15 -80 0 -96 -14 -104 -57 -32
l-28 47 -3 -47 c-2 -34 -7 -48 -18 -48 -11 0 -14 16 -14 73 0 104 13 113 60
40z m390 27 c45 -45 14 -140 -45 -140 -38 0 -65 33 -65 80 0 47 27 80 65 80
14 0 34 -9 45 -20z m270 -45 l0 -65 41 0 c61 0 45 -24 -19 -28 l-52 -3 0 80
c0 65 3 81 15 81 12 0 15 -14 15 -65z m388 49 c17 -12 22 -25 22 -61 0 -71
-44 -103 -101 -73 -27 15 -28 124 -1 139 25 15 54 13 80 -5z m343 -3 c29 -24
18 -39 -15 -21 -40 21 -58 7 -54 -42 2 -36 7 -44 26 -46 15 -2 22 2 22 12 0 9
-4 16 -10 16 -5 0 -10 7 -10 15 0 10 10 15 30 15 26 0 30 -4 30 -27 0 -53 -60
-82 -103 -50 -32 23 -28 118 6 139 21 13 54 9 78 -11z m309 4 c0 -8 -4 -15
-10 -15 -5 0 -10 -22 -10 -50 0 -27 5 -50 10 -50 6 0 10 -7 10 -15 0 -11 -11
-15 -40 -15 -29 0 -40 4 -40 15 0 8 5 15 10 15 14 0 13 97 -2 102 -23 8 4 28
38 28 24 0 34 -5 34 -15z m330 0 c0 -11 -11 -15 -40 -15 -29 0 -40 -4 -40 -15
0 -10 11 -15 35 -15 24 0 35 -5 35 -15 0 -10 -11 -15 -35 -15 -28 0 -35 -4
-35 -20 0 -17 7 -20 40 -20 29 0 40 -4 40 -15 0 -12 -13 -15 -55 -15 l-55 0 0
80 0 80 55 0 c42 0 55 -3 55 -15z m311 5 c10 -6 19 -17 19 -25 0 -17 -26 -20
-35 -5 -9 15 -45 12 -45 -4 0 -7 14 -17 31 -22 18 -5 38 -18 45 -29 32 -48
-52 -90 -98 -48 -24 21 -23 33 2 33 11 0 20 -4 20 -10 0 -5 11 -10 25 -10 39
0 30 25 -14 38 -44 14 -57 40 -34 71 15 23 53 27 84 11z"/>
<path d="M4274 734 c-18 -14 -18 -15 4 -4 12 6 22 13 22 15 0 8 -5 6 -26 -11z"/>
<path d="M2170 1370 c0 -46 2 -50 24 -50 27 0 34 16 28 68 -3 26 -9 32 -28 32
-22 0 -24 -4 -24 -50z"/>
<path d="M2834 1406 c-3 -8 -4 -29 -2 -48 2 -25 8 -34 25 -36 26 -4 39 31 29
73 -7 28 -43 35 -52 11z"/>
</g>
</svg>
