<?xml version="1.0" encoding="UTF-8"?>
<svg version="1.1" xmlns="http://www.w3.org/2000/svg" width="500" height="500">
<path d="M0 0 C165 0 330 0 500 0 C500 165 500 330 500 500 C335 500 170 500 0 500 C0 335 0 170 0 0 Z " fill="#000000" transform="translate(0,0)"/>
<path d="M0 0 C0.86783112 -0.00526703 1.73566223 -0.01053406 2.62979126 -0.01596069 C11.88239062 -0.05930479 21.05879559 0.14502457 30.26953125 1.078125 C31.00781662 1.14723083 31.74610199 1.21633667 32.50675964 1.28753662 C36.7879867 1.77980739 39.80009708 2.74095677 43.3125 5.25 C40.04713163 6.33845612 37.97469684 5.99035877 34.62792969 5.51660156 C30.4067611 5.03057076 26.18156071 5.10436019 21.9375 5.125 C20.46953979 5.12790039 20.46953979 5.12790039 18.97192383 5.13085938 C7.82614414 5.19404307 -3.30528385 5.65795365 -14.4387207 6.15820312 C-15.8541322 6.21598129 -17.27090972 6.25 -18.6875 6.25 C-21.59038759 6.64777886 -24.4885367 7.06238462 -27.38671875 7.4921875 C-28.25512894 7.62062042 -29.12353912 7.74905334 -30.01826477 7.88137817 C-31.86020239 8.15461195 -33.70201123 8.42871504 -35.54370117 8.70361328 C-38.34555989 9.12061838 -41.14832705 9.53108932 -43.95117188 9.94140625 C-45.74224794 10.20792749 -47.5332655 10.4748422 -49.32421875 10.7421875 C-50.15676682 10.8631076 -50.98931488 10.98402771 -51.84709167 11.10861206 C-56.60859993 11.82821585 -61.07991455 12.85304412 -65.6875 14.25 C-68.05812278 14.7304603 -70.43343832 15.18823922 -72.8125 15.625 C-78.82228462 16.77657103 -84.60269681 18.33437154 -90.42578125 20.2109375 C-93.9108239 21.3211427 -97.41620373 22.32366868 -100.9375 23.3125 C-109.21233989 25.67151513 -116.88572068 28.29343136 -124.68359375 31.9375 C-127.89078258 33.33882048 -131.12695741 34.49038337 -134.4375 35.625 C-153.37170693 42.27755919 -172.72962319 51.92353187 -189.1484375 63.46875 C-191.72859509 65.27882979 -194.37342611 66.91960759 -197.0625 68.5625 C-206.90973653 74.80050409 -215.90454748 82.31419065 -224.45703125 90.2109375 C-226.50651955 92.08455027 -228.61290593 93.85318527 -230.75 95.625 C-235.7100576 99.95505028 -239.68804919 105.04275844 -243.6875 110.25 C-244.30753906 111.054375 -244.92757812 111.85875 -245.56640625 112.6875 C-259.29006135 131.35412707 -264.64488628 153.43773951 -261.37402344 176.45605469 C-258.28241127 193.19503923 -248.3228597 208.16174086 -234.6875 218.25 C-200.43939762 240.92568422 -159.26666339 251.13038613 -118.6875 254.25 C-117.6365918 254.33685059 -116.58568359 254.42370117 -115.50292969 254.51318359 C-102.82056832 255.44546751 -90.14844204 255.40619876 -77.4375 255.375 C-76.28209717 255.37311676 -75.12669434 255.37123352 -73.9362793 255.36929321 C-48.46801971 255.3205533 -23.39857919 254.69751176 1.91503906 251.65283203 C5.26163928 251.25603048 8.61026899 250.88800943 11.9609375 250.52734375 C23.91265835 249.21359156 35.57747929 247.41718891 47.29296875 244.70996094 C50.18566367 244.05113148 53.09337251 243.46890225 56 242.875 C62.61136259 241.44932703 69.18181704 239.86209625 75.75 238.25 C76.7814917 238.00072754 77.8129834 237.75145508 78.87573242 237.49462891 C84.28592271 236.14968797 89.21328065 234.54017571 94.3125 232.25 C96.53933126 231.47007118 98.77972432 230.74056771 101.02294922 230.00927734 C113.61434806 225.83362684 125.62367578 220.49605318 137.3125 214.25 C138.47136719 213.63511719 139.63023437 213.02023437 140.82421875 212.38671875 C168.35965722 197.22181934 194.60300031 177.22519536 203.71264648 145.89331055 C204.69475586 141.56555384 204.75981007 137.3590966 204.6875 132.9375 C204.67589844 132.01888184 204.66429687 131.10026367 204.65234375 130.15380859 C204.2133816 111.81100062 197.04207079 96.43493755 184.3125 83.25 C161.83846664 62.21704969 130.27104625 51.81139593 101.3125 43.25 C99.97333784 42.82879062 98.63480944 42.40556175 97.296875 41.98046875 C86.12381519 38.48361725 74.83898086 36.24433704 63.3125 34.25 C62.50570801 34.10820312 61.69891602 33.96640625 60.86767578 33.8203125 C51.87302368 32.24471552 42.87390834 30.88537766 33.81640625 29.72265625 C28.62711381 29.02265136 23.46988813 28.15278302 18.3125 27.25 C18.3125 26.26 18.3125 25.27 18.3125 24.25 C15.3425 23.92 12.3725 23.59 9.3125 23.25 C9.3125 22.92 9.3125 22.59 9.3125 22.25 C20.17178409 22.09497098 30.87185259 22.4567012 41.6875 23.4375 C42.78717102 23.53594711 42.78717102 23.53594711 43.90905762 23.63638306 C93.38645238 28.15647912 149.70457225 42.30187317 188.3125 75.25 C189.35664062 76.13945312 189.35664062 76.13945312 190.421875 77.046875 C202.18741602 87.94889007 212.03496221 105.35175765 212.7109375 121.546875 C212.72345393 123.36455703 212.71516727 125.18248545 212.6875 127 C212.67879883 127.95865967 212.67009766 128.91731934 212.66113281 129.9050293 C212.4334704 141.00170591 210.61156844 151.3777629 205.3125 161.25 C204.91546875 162.013125 204.5184375 162.77625 204.109375 163.5625 C198.72973986 173.20874231 191.17809997 181.55808836 183.3125 189.25 C182.51714844 190.04277344 181.72179687 190.83554687 180.90234375 191.65234375 C158.60286609 212.96657203 130.06945622 227.67101611 101.3125 238.25 C100.48234375 238.57484375 99.6521875 238.8996875 98.796875 239.234375 C82.74308331 245.39337684 65.89716406 249.22835384 49.09082031 252.67529297 C46.42890561 253.22592102 43.77294024 253.79938632 41.1171875 254.37890625 C31.1046593 256.52548963 21.20345287 257.9317081 11.00390625 258.8203125 C6.98089693 259.17126447 2.99912696 259.68429107 -1 260.25 C-14.15893046 261.93806482 -27.44696412 262.51365887 -40.6875 263.25 C-41.75645508 263.31074707 -42.82541016 263.37149414 -43.92675781 263.43408203 C-51.17820856 263.83114578 -58.42730983 264.08079017 -65.6875 264.25 C-66.35356262 264.26673767 -67.01962524 264.28347534 -67.70587158 264.30072021 C-86.90745469 264.77213732 -105.82436741 264.39549994 -124.9375 262.375 C-125.76252014 262.28795807 -126.58754028 262.20091614 -127.43756104 262.11123657 C-135.23209383 261.2710751 -142.97287217 260.35226755 -150.64160156 258.68359375 C-153.71642056 258.0319376 -156.82812365 257.641792 -159.9375 257.1875 C-190.05546355 252.1625685 -221.42088535 240.46756233 -244.6875 220.25 C-245.3475 219.68410156 -246.0075 219.11820313 -246.6875 218.53515625 C-258.59355281 207.53600981 -267.96738892 190.49145264 -268.79248047 174.17382812 C-269.72081009 146.84288152 -262.29927626 123.30221627 -244.6875 102.25 C-243.99011719 101.41082031 -243.29273438 100.57164062 -242.57421875 99.70703125 C-222.40658696 76.42500058 -195.32771775 56.71467491 -167.6875 43.25 C-166.6975 43.25 -165.7075 43.25 -164.6875 43.25 C-165.0175 41.6 -165.3475 39.95 -165.6875 38.25 C-165.0275 38.25 -164.3675 38.25 -163.6875 38.25 C-163.0275 38.91 -162.3675 39.57 -161.6875 40.25 C-158.0575 38.6 -154.4275 36.95 -150.6875 35.25 C-150.6875 34.26 -150.6875 33.27 -150.6875 32.25 C-150.0275 32.25 -149.3675 32.25 -148.6875 32.25 C-148.6875 32.91 -148.6875 33.57 -148.6875 34.25 C-147.86660889 33.90743164 -147.04571777 33.56486328 -146.19995117 33.21191406 C-143.10132251 31.92021916 -140.00177333 30.6307816 -136.90161133 29.34277344 C-135.56986623 28.78896256 -134.23847467 28.23430063 -132.9074707 27.67871094 C-120.97824629 22.70033781 -109.09725482 18.19678186 -96.625 14.75 C-95.53952881 14.44811768 -94.45405762 14.14623535 -93.33569336 13.83520508 C-81.70293179 10.64127592 -69.9768269 8.01143222 -58.12890625 5.74609375 C-56.31666436 5.3778462 -54.51286442 4.96753179 -52.71484375 4.53515625 C-35.28440165 0.43747337 -17.82844577 0.05506995 0 0 Z " fill="#9E9E9E" transform="translate(277.6875,100.75)"/>
<path d="M0 0 C0 7.26 0 14.52 0 22 C-0.66 22 -1.32 22 -2 22 C-2.11214844 21.09507812 -2.11214844 21.09507812 -2.2265625 20.171875 C-2.35804688 19.37265625 -2.48953125 18.5734375 -2.625 17.75 C-2.74101562 16.96109375 -2.85703125 16.1721875 -2.9765625 15.359375 C-4.51469167 11.8134589 -6.63586811 10.83567061 -10 9 C-12.82540342 8.43317676 -15.5851241 8.3949696 -18.4609375 8.390625 C-19.16259033 8.37499512 -19.86424316 8.35936523 -20.5871582 8.34326172 C-23.18276679 8.2910633 -25.7789638 8.2724646 -28.375 8.25 C-34.19125 8.1675 -40.0075 8.085 -46 8 C-46 20.54 -46 33.08 -46 46 C-42.37 46.99 -38.74 47.98 -35 49 C-31.9921875 50.3515625 -31.9921875 50.3515625 -29.875 51.625 C-28.78832031 52.26308594 -28.78832031 52.26308594 -27.6796875 52.9140625 C-26 54 -26 54 -25 55 C-23.64087582 62.31149283 -22.7025292 69.56322999 -23 77 C-25.37034941 74.62965059 -26.20207943 72.43691524 -27.5625 69.375 C-31.78958355 60.76580539 -37.51483098 56.15909765 -46 52 C-45.96193094 60.78001825 -45.9025523 69.55956018 -45.81609726 78.33923626 C-45.77661754 82.41619647 -45.7444317 86.49294055 -45.72900391 90.57006836 C-45.71384024 94.50607763 -45.67940082 98.44149272 -45.63169098 102.37723732 C-45.61687401 103.87744795 -45.6089588 105.3777434 -45.60811615 106.87802696 C-45.60574548 108.98272128 -45.5786629 111.0857748 -45.54589844 113.19018555 C-45.53701599 114.38709518 -45.52813354 115.58400482 -45.51898193 116.81718445 C-44.89891823 120.6199149 -43.68818978 122.28776209 -41 125 C-38.68189443 126.00575537 -38.68189443 126.00575537 -36.25 126.3125 C-35.45078125 126.45300781 -34.6515625 126.59351563 -33.828125 126.73828125 C-33.22484375 126.82464844 -32.6215625 126.91101563 -32 127 C-32 127.66 -32 128.32 -32 129 C-45.2 129 -58.4 129 -72 129 C-72 128.34 -72 127.68 -72 127 C-71.39671875 126.92523438 -70.7934375 126.85046875 -70.171875 126.7734375 C-68.97304687 126.57621094 -68.97304687 126.57621094 -67.75 126.375 C-66.96109375 126.25898438 -66.1721875 126.14296875 -65.359375 126.0234375 C-61.85004051 124.50117651 -60.84336056 122.30264543 -59 119 C-58.39080617 115.5766202 -58.39080617 115.5766202 -58.45410156 111.89306641 C-58.43859505 110.86762726 -58.43859505 110.86762726 -58.42277527 109.82147217 C-58.39348043 107.58125805 -58.39185104 105.34195261 -58.390625 103.1015625 C-58.37563421 101.54070324 -58.35890517 99.97985978 -58.34051514 98.41903687 C-58.29692973 94.32557422 -58.2768623 90.23232553 -58.26177979 86.13867188 C-58.24217672 81.95560095 -58.20021039 77.77276 -58.16015625 73.58984375 C-58.08494972 65.3932895 -58.03460068 57.19682579 -58 49 C-60.87428576 49.12303563 -63.74754954 49.25595826 -66.62109375 49.39453125 C-67.42881226 49.42808716 -68.23653076 49.46164307 -69.06872559 49.49621582 C-79.80621433 50.03377244 -90.00947188 53.79346726 -97.625 61.68359375 C-99 63 -99 63 -101 63 C-101.40798828 63.87398437 -101.40798828 63.87398437 -101.82421875 64.765625 C-102.98329537 66.96825565 -104.31147221 68.76975226 -105.8125 70.75 C-114.3385264 83.59141078 -115.62588145 98.45890709 -113.5234375 113.3828125 C-110.74315199 126.21232273 -104.19751738 137.93357565 -93.55078125 145.8125 C-91.06415317 147.37396191 -88.65444323 148.7401408 -86 150 C-84.93023926 150.51191895 -84.93023926 150.51191895 -83.83886719 151.03417969 C-77.48241774 153.85508921 -72.0432617 154.63962796 -65.125 154.5 C-63.67818848 154.48187256 -63.67818848 154.48187256 -62.20214844 154.46337891 C-50.39535154 154.13508071 -38.57526537 150.57526537 -30 142 C-29.78830252 139.51457753 -29.6960047 137.14325157 -29.69921875 134.65625 C-29.69279106 133.56890564 -29.69279106 133.56890564 -29.68623352 132.45959473 C-29.68048833 130.92636154 -29.67999136 129.3931011 -29.68432617 127.85986328 C-29.68748794 125.50896956 -29.66402539 123.15933192 -29.63867188 120.80859375 C-29.63639913 119.32031409 -29.63569527 117.83203104 -29.63671875 116.34375 C-29.627509 115.63851196 -29.61829926 114.93327393 -29.60881042 114.20666504 C-29.59494584 112.01180592 -29.59494584 112.01180592 -30 109 C-33.18762365 106.87491756 -35.26512223 106.4979837 -39 106 C-39 105.34 -39 104.68 -39 104 C-28.77 104 -18.54 104 -8 104 C-8 104.66 -8 105.32 -8 106 C-8.56589844 106.13277344 -9.13179688 106.26554687 -9.71484375 106.40234375 C-10.81505859 106.66724609 -10.81505859 106.66724609 -11.9375 106.9375 C-13.03384766 107.19853516 -13.03384766 107.19853516 -14.15234375 107.46484375 C-15.99969898 107.83887569 -15.99969898 107.83887569 -17 109 C-17.12610773 111.61043007 -17.18870308 114.19284965 -17.203125 116.8046875 C-17.20882507 117.59843781 -17.21452515 118.39218811 -17.22039795 119.20999146 C-17.22987108 120.89974631 -17.23639106 122.58951984 -17.24023438 124.27929688 C-17.24982985 126.82977302 -17.28078253 129.3794046 -17.3125 131.9296875 C-17.40418966 145.80712252 -15.8768008 158.86831672 -6.40625 169.84765625 C1.00019754 176.67765858 9.81569339 180.01188532 19.734375 180.31640625 C21.02988281 180.35830078 22.32539063 180.40019531 23.66015625 180.44335938 C25.02343476 180.48316671 26.38671606 180.52287906 27.75 180.5625 C29.12891875 180.60572274 30.50782526 180.64933821 31.88671875 180.69335938 C35.2577119 180.79943958 38.62877826 180.9014985 42 181 C41.67 181.66 41.34 182.32 41 183 C26.72985561 187.6780323 10.89720554 187.8926229 -2.87109375 181.7109375 C-16.44906667 174.82062288 -22.92655638 164.02657943 -28 150 C-29.05058594 150.55429687 -30.10117188 151.10859375 -31.18359375 151.6796875 C-32.60128132 152.41200293 -34.01926621 153.14374297 -35.4375 153.875 C-36.46907227 154.42220703 -36.46907227 154.42220703 -37.52148438 154.98046875 C-51.62134623 162.19435156 -70.88575027 162.67780926 -85.875 157.875 C-101.44630412 152.38905245 -113.92674445 141.74465686 -121.6875 127.1875 C-127.85519713 114.01648225 -129.39864549 99.10801223 -125.375 85 C-118.93748116 67.30243078 -108.21394154 56.22912641 -91.3125 48.1875 C-83.31588922 44.54363226 -76.1619131 43.71262505 -67.5 43.875 C-64.365 43.91625 -61.23 43.9575 -58 44 C-58 32.12 -58 20.24 -58 8 C-63.95975622 8.07427285 -69.91808651 8.15734968 -75.87719727 8.26245117 C-77.90120874 8.29555228 -79.92530924 8.32362957 -81.94946289 8.34643555 C-84.87163973 8.38025537 -87.79301158 8.43258341 -90.71484375 8.48828125 C-91.60896469 8.49467117 -92.50308563 8.5010611 -93.42430115 8.50764465 C-102.28324403 8.71149581 -109.69972783 10.54972135 -116 17 C-119.3208206 21.87053688 -119.62101668 26.28868263 -119 32 C-118.11539972 35.41471924 -118.11539972 35.41471924 -117 38 C-119.93576279 36.987668 -120.97512741 36.03642058 -122.75 33.4375 C-124.83457293 27.70492443 -124.6463601 23.04113715 -122.8125 17.25 C-119.2944513 10.94177475 -114.01277552 6.65496385 -107.34414673 3.90466309 C-103.33437334 2.81993378 -99.55127042 2.70772019 -95.43115234 2.71289062 C-94.59123749 2.70605759 -93.75132263 2.69922455 -92.88595581 2.69218445 C-91.06905142 2.6786383 -89.25210936 2.66955821 -87.43516159 2.66447449 C-84.54962882 2.65614519 -81.66440647 2.63559962 -78.77896118 2.61193848 C-72.64435397 2.56380274 -66.50971525 2.53085245 -60.375 2.5 C-53.28220606 2.4641947 -46.18956295 2.42199524 -39.09691238 2.36405945 C-36.27213685 2.34418068 -33.44748058 2.33570806 -30.62265015 2.32775879 C-22.36436802 2.27809968 -14.4312317 2.10141273 -6.30508423 0.42541504 C-4 0 -4 0 0 0 Z " fill="#E6B329" transform="translate(219,157)"/>
<path d="M0 0 C2.28510438 1.66678202 2.92619259 2.56004996 3.3984375 5.375 C3.39070313 6.24125 3.38296875 7.1075 3.375 8 C3.38273437 8.86625 3.39046875 9.7325 3.3984375 10.625 C2.92421789 13.45172083 2.31480836 14.34656546 0 16 C-6.08878645 16.65236998 -6.08878645 16.65236998 -8.69140625 14.7890625 C-10.4140657 12.4339042 -10.43318771 10.89785884 -10.4375 8 C-10.45683594 7.13375 -10.47617187 6.2675 -10.49609375 5.375 C-10 3 -10 3 -8.1640625 1.2109375 C-5.24467687 -0.42265374 -3.293979 -0.42050796 0 0 Z " fill="#999999" transform="translate(289,241)"/>
<path d="M0 0 C2.1640625 1.2109375 2.1640625 1.2109375 4 3 C4.49609375 5.375 4.49609375 5.375 4.4375 8 C4.43621094 8.86625 4.43492187 9.7325 4.43359375 10.625 C3.92070155 13.43435546 3.30552195 14.34939537 1 16 C-5.08695652 16.65217391 -5.08695652 16.65217391 -7.6953125 14.7890625 C-9.41799031 12.42682766 -9.40090841 10.90174224 -9.375 8 C-9.38273438 7.13375 -9.39046875 6.2675 -9.3984375 5.375 C-8.48083976 -0.09460219 -5.00574184 -0.61294798 0 0 Z " fill="#9D9D9D" transform="translate(222,241)"/>
<path d="M0 0 C4 1 4 1 6.25 4.0625 C7.11625 5.5165625 7.11625 5.5165625 8 7 C8.33 4.69 8.66 2.38 9 0 C10.32 0 11.64 0 13 0 C13 5.28 13 10.56 13 16 C8 15 8 15 6.1875 12.4375 C5.795625 11.633125 5.40375 10.82875 5 10 C4.67 11.98 4.34 13.96 4 16 C2.68 16 1.36 16 0 16 C0 10.72 0 5.44 0 0 Z " fill="#979797" transform="translate(179,241)"/>
<path d="M0 0 C1.32 0 2.64 0 4 0 C4 1.98 4 3.96 4 6 C5.65 6 7.3 6 9 6 C9 4.02 9 2.04 9 0 C10.32 0 11.64 0 13 0 C13 5.28 13 10.56 13 16 C11.68 16 10.36 16 9 16 C9 14.02 9 12.04 9 10 C7.35 10 5.7 10 4 10 C4 11.98 4 13.96 4 16 C2.68 16 1.36 16 0 16 C0 10.72 0 5.44 0 0 Z " fill="#9A9A9A" transform="translate(144,241)"/>
<path d="M0 0 C3.96 0 7.92 0 12 0 C12 1.32 12 2.64 12 4 C9.36 4 6.72 4 4 4 C4 4.66 4 5.32 4 6 C6.31 6 8.62 6 11 6 C11 6.99 11 7.98 11 9 C8.69 9 6.38 9 4 9 C4 10.32 4 11.64 4 13 C6.64 13 9.28 13 12 13 C12 13.99 12 14.98 12 16 C8.04 16 4.08 16 0 16 C0 10.72 0 5.44 0 0 Z " fill="#9A9A9A" transform="translate(77,241)"/>
<path d="M0 0 C0.99 0.66 1.98 1.32 3 2 C3 2.99 3 3.98 3 5 C1.68 5 0.36 5 -1 5 C-1 4.34 -1 3.68 -1 3 C-2.32 3.33 -3.64 3.66 -5 4 C-5 6.64 -5 9.28 -5 12 C-3.68 12.33 -2.36 12.66 -1 13 C-1 12.01 -1 11.02 -1 10 C-1.66 10 -2.32 10 -3 10 C-3 9.01 -3 8.02 -3 7 C-1.02 7 0.96 7 3 7 C3.1875 10.375 3.1875 10.375 3 14 C-0.69486103 16.46324069 -2.63293092 16.38991688 -7 16 C-9.30790728 14.35301767 -9.92084583 13.43356516 -10.43359375 10.625 C-10.43488281 9.75875 -10.43617188 8.8925 -10.4375 8 C-10.45683594 7.13375 -10.47617187 6.2675 -10.49609375 5.375 C-10 3 -10 3 -8.1640625 1.20703125 C-5.26815259 -0.40819648 -3.26775176 -0.34763317 0 0 Z " fill="#9A9A9A" transform="translate(323,241)"/>
<path d="M0 0 C3.63 0 7.26 0 11 0 C11 1.32 11 2.64 11 4 C8.69 4 6.38 4 4 4 C4 4.66 4 5.32 4 6 C5.98 6 7.96 6 10 6 C10 6.99 10 7.98 10 9 C7.69 9 5.38 9 3 9 C3 10.32 3 11.64 3 13 C5.97 13 8.94 13 12 13 C12 13.99 12 14.98 12 16 C8.04 16 4.08 16 0 16 C0 10.72 0 5.44 0 0 Z " fill="#9A9A9A" transform="translate(377,241)"/>
<path d="M0 0 C3.0625 0.25 3.0625 0.25 6.0625 2.25 C6.0625 3.24 6.0625 4.23 6.0625 5.25 C3.39583333 4.58333333 0.72916667 3.91666667 -1.9375 3.25 C0.60706151 6.21865509 3.55244665 7.6119751 7.0625 9.25 C6.3125 14 6.3125 14 4.0625 16.25 C-2.14262821 16.81410256 -2.14262821 16.81410256 -4.875 14.875 C-5.9375 13.25 -5.9375 13.25 -5.9375 11.25 C-3.2975 11.58 -0.6575 11.91 2.0625 12.25 C-0.56397188 10.49901874 -3.22525382 8.86268692 -5.9375 7.25 C-4.85804484 0.41345062 -4.85804484 0.41345062 0 0 Z " fill="#9B9B9B" transform="translate(414.9375,240.75)"/>
<path d="M0 0 C2.375 1.375 2.375 1.375 4 3 C4 3.66 4 4.32 4 5 C1.36 4.67 -1.28 4.34 -4 4 C-4 6.64 -4 9.28 -4 12 C-3.01 12 -2.02 12 -1 12 C-0.67 11.34 -0.34 10.68 0 10 C1.32 10 2.64 10 4 10 C3.42655063 12.86724686 3.1385485 13.8614515 1 16 C-5.2057903 16.56416275 -5.2057903 16.56416275 -7.69921875 14.79296875 C-9.41511638 12.42781256 -9.40089738 10.90050638 -9.375 8 C-9.38273437 7.13375 -9.39046875 6.2675 -9.3984375 5.375 C-8.48083976 -0.09460219 -5.00574184 -0.61294798 0 0 Z " fill="#999999" transform="translate(119,241)"/>
<path d="M0 0 C3.96 0 7.92 0 12 0 C12 1.32 12 2.64 12 4 C10.68 4 9.36 4 8 4 C8 7.96 8 11.92 8 16 C6.68 16 5.36 16 4 16 C4 12.04 4 8.08 4 4 C2.68 4 1.36 4 0 4 C0 2.68 0 1.36 0 0 Z " fill="#969696" transform="translate(44,241)"/>
<path d="M0 0 C2.64 0 5.28 0 8 0 C8 0.99 8 1.98 8 3 C7.34 3 6.68 3 6 3 C6 6.3 6 9.6 6 13 C6.66 13 7.32 13 8 13 C8 13.99 8 14.98 8 16 C5.36 16 2.72 16 0 16 C0 15.01 0 14.02 0 13 C0.66 13 1.32 13 2 13 C2 10.03 2 7.06 2 4 C1.34 4 0.68 4 0 4 C0 2.68 0 1.36 0 0 Z " fill="#9D9D9D" transform="translate(347,241)"/>
<path d="M0 0 C0.99 0 1.98 0 3 0 C3 4.29 3 8.58 3 13 C5.64 13 8.28 13 11 13 C11 13.99 11 14.98 11 16 C7.37 16 3.74 16 0 16 C0 10.72 0 5.44 0 0 Z " fill="#A4A4A4" transform="translate(248,241)"/>
<path d="M0 0 C1.32 0 2.64 0 4 0 C4 0.66 4 1.32 4 2 C5.32 2.33 6.64 2.66 8 3 C6.02 3.33 4.04 3.66 2 4 C2 4.99 2 5.98 2 7 C2.66 7 3.32 7 4 7 C4 7.99 4 8.98 4 10 C2.35 9.67 0.7 9.34 -1 9 C-1.09765625 2.84765625 -1.09765625 2.84765625 -1 1 C-0.67 0.67 -0.34 0.34 0 0 Z " fill="#121212" transform="translate(318,244)"/>
<path d="M0 0 C2.0625 0.4375 2.0625 0.4375 4 1 C4 3.64 4 6.28 4 9 C2.0625 9.5625 2.0625 9.5625 0 10 C-1 9 -1 9 -1.1328125 7.1875 C-1.13023437 6.465625 -1.12765625 5.74375 -1.125 5 C-1.12757813 4.278125 -1.13015625 3.55625 -1.1328125 2.8125 C-1 1 -1 1 0 0 Z " fill="#080808" transform="translate(284,244)"/>
<path d="M0 0 C2.0625 0.4375 2.0625 0.4375 4 1 C4 3.64 4 6.28 4 9 C2.0625 9.5625 2.0625 9.5625 0 10 C-1 9 -1 9 -1.1328125 7.1875 C-1.13023437 6.465625 -1.12765625 5.74375 -1.125 5 C-1.12757813 4.278125 -1.13015625 3.55625 -1.1328125 2.8125 C-1 1 -1 1 0 0 Z " fill="#050505" transform="translate(218,244)"/>
<path d="M0 0 C7.92 0 15.84 0 24 0 C23.67 0.66 23.34 1.32 23 2 C20 2.6875 20 2.6875 17 3 C16.67 2.67 16.34 2.34 16 2 C13.30764224 1.76321284 10.63501844 1.57801975 7.9375 1.4375 C7.17888672 1.39431641 6.42027344 1.35113281 5.63867188 1.30664062 C3.75934562 1.20026367 1.87969756 1.09960066 0 1 C0 0.67 0 0.34 0 0 Z " fill="#9E7C1C" transform="translate(237,338)"/>
<path d="M0 0 C1.5 1.3125 1.5 1.3125 3 3 C3 3.99 3 4.98 3 6 C3.66 6 4.32 6 5 6 C5 6.99 5 7.98 5 9 C3.35 8.67 1.7 8.34 0 8 C0 5.36 0 2.72 0 0 Z " fill="#212121" transform="translate(317,245)"/>
<path d="M0 0 C4.46840411 0.49648935 5.68987756 0.68987756 9 4 C5.37 3.67 1.74 3.34 -2 3 C-1.34 2.01 -0.68 1.02 0 0 Z " fill="#7E7E7E" transform="translate(312,103)"/>
</svg>
